<svg width="40" height="40" viewBox="0 0 40 40" fill="none" xmlns="http://www.w3.org/2000/svg">
<path d="M39.807 24.3337C39.2016 21.5576 37.2502 19.3091 34.5871 18.3189L25.7446 15.0311C26.3722 14.008 26.7348 12.8056 26.7348 11.5199C26.7348 9.10874 25.4603 6.99054 23.5504 5.80061C23.6706 4.50569 24.2324 3.30397 25.1635 2.3728L25.5357 2.00054C25.9934 1.54296 25.9934 0.800926 25.5357 0.34327C25.0781 -0.114309 24.3361 -0.114309 23.8784 0.34327L23.5062 0.715535C22.3461 1.87569 21.5897 3.33186 21.3069 4.91358C20.8839 4.83007 20.4471 4.78522 20 4.78522C19.5433 4.78522 19.0972 4.8314 18.6658 4.91843C18.3029 3.08694 17.3044 1.43858 15.8049 0.252723C15.2974 -0.148684 14.5603 -0.062668 14.1588 0.444988C13.7573 0.952645 13.8433 1.6896 14.351 2.09108C15.524 3.01874 16.2619 4.34819 16.4348 5.80999C14.5331 7.00163 13.265 9.11491 13.265 11.5199C13.265 12.8056 13.6277 14.008 14.2553 15.0311L5.41292 18.3189C2.74977 19.3091 0.798418 21.5576 0.193021 24.3337C-0.412376 27.1097 0.42568 29.9666 2.43484 31.9755C4.014 33.5548 6.1166 34.4103 8.29241 34.4103C8.88476 34.4103 9.48281 34.3469 10.0768 34.2173C12.3423 33.7233 14.2561 32.3326 15.4218 30.3905C16.677 33.1297 18.1915 35.1184 18.8282 35.8951V38.8281C18.8282 39.4753 19.3528 40 20 40C20.6472 40 21.1719 39.4753 21.1719 38.8281V35.8951C21.8086 35.1184 23.323 33.1298 24.5783 30.3905C25.7439 32.3327 27.6578 33.7233 29.9233 34.2173C30.5175 34.3469 31.1152 34.4103 31.7077 34.4103C33.8832 34.4103 35.9862 33.5546 37.5652 31.9755C39.5743 29.9666 40.4124 27.1097 39.807 24.3337ZM13.8948 28.1807C13.184 30.0923 11.5701 31.4929 9.57742 31.9274C7.58474 32.3619 5.53417 31.7603 4.09205 30.3183C2.64992 28.8762 2.04835 26.8255 2.48289 24.833C2.91743 22.8403 4.31815 21.2264 6.22965 20.5156L14.0685 17.601C13.7079 19.0109 13.4825 20.5233 13.4825 22.102C13.4825 23.9225 13.7821 25.6548 14.2433 27.2432L13.8948 28.1807ZM19.9985 33.5695C19.2314 32.5154 18.1035 30.7763 17.2138 28.6195H22.7812C21.891 30.7737 20.7641 32.5144 19.9985 33.5695ZM23.5863 26.2757H16.4107C16.1503 25.3209 15.9603 24.3148 15.876 23.274H24.1236C24.0388 24.3139 23.8478 25.3201 23.5863 26.2757V26.2757ZM15.8763 20.9302C15.9792 19.6685 16.2389 18.4565 16.5902 17.3242C17.5911 17.9144 18.7563 18.2547 20 18.2547C21.2449 18.2547 22.4111 17.9138 23.4127 17.3225C23.7628 18.4543 24.0216 19.6666 24.1239 20.9302H15.8763ZM20 15.9109C17.5788 15.9109 15.6089 13.9411 15.6089 11.5199C15.6089 9.09874 17.5788 7.1289 20 7.1289C22.4212 7.1289 24.391 9.09866 24.391 11.5198C24.391 13.941 22.4212 15.9109 20 15.9109ZM35.9079 30.3184C34.4657 31.7605 32.4151 32.3617 30.4225 31.9275C28.4299 31.493 26.8159 30.0923 26.1051 28.1808L25.7565 27.2433C26.2177 25.6548 26.5173 23.9226 26.5173 22.1021C26.5173 20.5234 26.2919 19.0109 25.9313 17.6011L33.7701 20.5157C35.6817 21.2265 37.0823 22.8404 37.5169 24.833C37.9516 26.8256 37.35 28.8762 35.9079 30.3184Z" fill="#FFD700"/>
</svg>
